<?xml version="1.0" encoding="UTF-8" standalone="no"?>
<!DOCTYPE svg PUBLIC "-//W3C//DTD SVG 1.1//EN"
 "http://www.w3.org/Graphics/SVG/1.1/DTD/svg11.dtd">
<!-- Generated by graphviz version 2.47.3 (20210619.1520)
 -->
<!-- Title: dependencies Pages: 1 -->
<svg width="740pt" height="247pt"
 viewBox="0.00 0.00 740.00 246.80" xmlns="http://www.w3.org/2000/svg" xmlns:xlink="http://www.w3.org/1999/xlink">
<g id="graph0" class="graph" transform="scale(1 1) rotate(0) translate(4 242.8)">
<title>dependencies</title>
<polygon fill="white" stroke="transparent" points="-4,4 -4,-242.8 736,-242.8 736,4 -4,4"/>
<text text-anchor="middle" x="366" y="-8.2" font-family="sans-serif" font-size="14.00">dependencies</text>
<g id="clust1" class="cluster">
<title>cluster_UserModule</title>
<polygon fill="none" stroke="black" stroke-dasharray="1,5" points="8,-32.8 8,-230.8 724,-230.8 724,-32.8 8,-32.8"/>
</g>
<g id="clust6" class="cluster">
<title>cluster_UserModule_providers</title>
<polygon fill="none" stroke="black" points="16,-40.8 16,-92.8 716,-92.8 716,-40.8 16,-40.8"/>
</g>
<g id="clust4" class="cluster">
<title>cluster_UserModule_exports</title>
<polygon fill="none" stroke="black" points="241,-170.8 241,-222.8 441,-222.8 441,-170.8 241,-170.8"/>
</g>
<!-- UserAreas  -->
<g id="node1" class="node">
<title>UserAreas </title>
<polygon fill="#fb8072" stroke="black" points="433.07,-214.8 354.93,-214.8 354.93,-178.8 433.07,-178.8 433.07,-214.8"/>
<text text-anchor="middle" x="394" y="-192.6" font-family="Times,serif" font-size="14.00">UserAreas </text>
</g>
<!-- UserService  -->
<g id="node2" class="node">
<title>UserService </title>
<polygon fill="#fb8072" stroke="black" points="336.9,-214.8 249.1,-214.8 249.1,-178.8 336.9,-178.8 336.9,-214.8"/>
<text text-anchor="middle" x="293" y="-192.6" font-family="Times,serif" font-size="14.00">UserService </text>
</g>
<!-- UserModule -->
<g id="node3" class="node">
<title>UserModule</title>
<polygon fill="#8dd3c7" stroke="black" points="385.98,-149.8 382.98,-153.8 361.98,-153.8 358.98,-149.8 300.02,-149.8 300.02,-113.8 385.98,-113.8 385.98,-149.8"/>
<text text-anchor="middle" x="343" y="-127.6" font-family="Times,serif" font-size="14.00">UserModule</text>
</g>
<!-- UserModule&#45;&gt;UserAreas  -->
<g id="edge1" class="edge">
<title>UserModule&#45;&gt;UserAreas </title>
<path fill="none" stroke="black" stroke-dasharray="5,2" d="M370.35,-149.91C370.35,-149.91 370.35,-168.79 370.35,-168.79"/>
<polygon fill="black" stroke="black" points="366.85,-168.79 370.35,-178.79 373.85,-168.79 366.85,-168.79"/>
</g>
<!-- UserModule&#45;&gt;UserService  -->
<g id="edge2" class="edge">
<title>UserModule&#45;&gt;UserService </title>
<path fill="none" stroke="black" stroke-dasharray="5,2" d="M318.48,-149.91C318.48,-149.91 318.48,-168.79 318.48,-168.79"/>
<polygon fill="black" stroke="black" points="314.98,-168.79 318.48,-178.79 321.98,-168.79 314.98,-168.79"/>
</g>
<!-- ActionsService -->
<g id="node4" class="node">
<title>ActionsService</title>
<ellipse fill="#fdb462" stroke="black" cx="638" cy="-66.8" rx="70.06" ry="18"/>
<text text-anchor="middle" x="638" y="-62.6" font-family="Times,serif" font-size="14.00">ActionsService</text>
</g>
<!-- ActionsService&#45;&gt;UserModule -->
<g id="edge3" class="edge">
<title>ActionsService&#45;&gt;UserModule</title>
<path fill="none" stroke="black" d="M638,-85.08C638,-106.12 638,-137.8 638,-137.8 638,-137.8 396.21,-137.8 396.21,-137.8"/>
<polygon fill="black" stroke="black" points="396.21,-134.3 386.21,-137.8 396.21,-141.3 396.21,-134.3"/>
</g>
<!-- AreasService -->
<g id="node5" class="node">
<title>AreasService</title>
<ellipse fill="#fdb462" stroke="black" cx="487" cy="-66.8" rx="62.51" ry="18"/>
<text text-anchor="middle" x="487" y="-62.6" font-family="Times,serif" font-size="14.00">AreasService</text>
</g>
<!-- AreasService&#45;&gt;UserModule -->
<g id="edge4" class="edge">
<title>AreasService&#45;&gt;UserModule</title>
<path fill="none" stroke="black" d="M428.89,-73.57C428.89,-89.07 428.89,-125.8 428.89,-125.8 428.89,-125.8 396.2,-125.8 396.2,-125.8"/>
<polygon fill="black" stroke="black" points="396.2,-122.3 386.2,-125.8 396.2,-129.3 396.2,-122.3"/>
</g>
<!-- OauthService -->
<g id="node6" class="node">
<title>OauthService</title>
<ellipse fill="#fdb462" stroke="black" cx="343" cy="-66.8" rx="63.68" ry="18"/>
<text text-anchor="middle" x="343" y="-62.6" font-family="Times,serif" font-size="14.00">OauthService</text>
</g>
<!-- OauthService&#45;&gt;UserModule -->
<g id="edge5" class="edge">
<title>OauthService&#45;&gt;UserModule</title>
<path fill="none" stroke="black" d="M343,-84.91C343,-84.91 343,-103.79 343,-103.79"/>
<polygon fill="black" stroke="black" points="339.5,-103.79 343,-113.79 346.5,-103.79 339.5,-103.79"/>
</g>
<!-- UserAreas -->
<g id="node7" class="node">
<title>UserAreas</title>
<ellipse fill="#fdb462" stroke="black" cx="210" cy="-66.8" rx="51.56" ry="18"/>
<text text-anchor="middle" x="210" y="-62.6" font-family="Times,serif" font-size="14.00">UserAreas</text>
</g>
<!-- UserAreas&#45;&gt;UserModule -->
<g id="edge6" class="edge">
<title>UserAreas&#45;&gt;UserModule</title>
<path fill="none" stroke="black" d="M255.41,-75.51C255.41,-91.92 255.41,-125.8 255.41,-125.8 255.41,-125.8 289.98,-125.8 289.98,-125.8"/>
<polygon fill="black" stroke="black" points="289.98,-129.3 299.98,-125.8 289.98,-122.3 289.98,-129.3"/>
</g>
<!-- UserService -->
<g id="node8" class="node">
<title>UserService</title>
<ellipse fill="#fdb462" stroke="black" cx="82" cy="-66.8" rx="58.44" ry="18"/>
<text text-anchor="middle" x="82" y="-62.6" font-family="Times,serif" font-size="14.00">UserService</text>
</g>
<!-- UserService&#45;&gt;UserModule -->
<g id="edge7" class="edge">
<title>UserService&#45;&gt;UserModule</title>
<path fill="none" stroke="black" d="M82,-85.08C82,-106.12 82,-137.8 82,-137.8 82,-137.8 289.9,-137.8 289.9,-137.8"/>
<polygon fill="black" stroke="black" points="289.9,-141.3 299.9,-137.8 289.9,-134.3 289.9,-141.3"/>
</g>
</g>
</svg>
