<?xml version="1.0" encoding="UTF-8" standalone="no"?>
<!DOCTYPE svg PUBLIC "-//W3C//DTD SVG 1.1//EN"
 "http://www.w3.org/Graphics/SVG/1.1/DTD/svg11.dtd">
<!-- Generated by graphviz version 2.47.3 (20210619.1520)
 -->
<!-- Title: dependencies Pages: 1 -->
<svg width="1400pt" height="174pt"
 viewBox="0.00 0.00 1400.00 173.80" xmlns="http://www.w3.org/2000/svg" xmlns:xlink="http://www.w3.org/1999/xlink">
<g id="graph0" class="graph" transform="scale(1 1) rotate(0) translate(4 169.8)">
<title>dependencies</title>
<polygon fill="white" stroke="transparent" points="-4,4 -4,-169.8 1396,-169.8 1396,4 -4,4"/>
<text text-anchor="middle" x="696" y="-8.2" font-family="sans-serif" font-size="14.00">dependencies</text>
<g id="clust1" class="cluster">
<title>cluster_AppModule</title>
<polygon fill="none" stroke="black" stroke-dasharray="1,5" points="8,-32.8 8,-157.8 1384,-157.8 1384,-32.8 8,-32.8"/>
</g>
<g id="clust6" class="cluster">
<title>cluster_AppModule_providers</title>
<polygon fill="none" stroke="black" points="1083,-40.8 1083,-92.8 1376,-92.8 1376,-40.8 1083,-40.8"/>
</g>
<g id="clust3" class="cluster">
<title>cluster_AppModule_imports</title>
<polygon fill="none" stroke="black" points="16,-40.8 16,-92.8 1075,-92.8 1075,-40.8 16,-40.8"/>
</g>
<!-- AboutModule -->
<g id="node1" class="node">
<title>AboutModule</title>
<polygon fill="#8dd3c7" stroke="black" points="1067.05,-84.8 1064.05,-88.8 1043.05,-88.8 1040.05,-84.8 972.95,-84.8 972.95,-48.8 1067.05,-48.8 1067.05,-84.8"/>
<text text-anchor="middle" x="1020" y="-62.6" font-family="Times,serif" font-size="14.00">AboutModule</text>
</g>
<!-- AppModule -->
<g id="node10" class="node">
<title>AppModule</title>
<polygon fill="#8dd3c7" stroke="black" points="720.66,-149.8 717.66,-153.8 696.66,-153.8 693.66,-149.8 637.34,-149.8 637.34,-113.8 720.66,-113.8 720.66,-149.8"/>
<text text-anchor="middle" x="679" y="-127.6" font-family="Times,serif" font-size="14.00">AppModule</text>
</g>
<!-- AboutModule&#45;&gt;AppModule -->
<g id="edge1" class="edge">
<title>AboutModule&#45;&gt;AppModule</title>
<path fill="none" stroke="black" d="M1020,-84.91C1020,-104.14 1020,-131.8 1020,-131.8 1020,-131.8 730.81,-131.8 730.81,-131.8"/>
<polygon fill="black" stroke="black" points="730.81,-128.3 720.81,-131.8 730.81,-135.3 730.81,-128.3"/>
</g>
<!-- ActionsModule -->
<g id="node2" class="node">
<title>ActionsModule</title>
<polygon fill="#8dd3c7" stroke="black" points="954.6,-84.8 951.6,-88.8 930.6,-88.8 927.6,-84.8 851.4,-84.8 851.4,-48.8 954.6,-48.8 954.6,-84.8"/>
<text text-anchor="middle" x="903" y="-62.6" font-family="Times,serif" font-size="14.00">ActionsModule</text>
</g>
<!-- ActionsModule&#45;&gt;AppModule -->
<g id="edge2" class="edge">
<title>ActionsModule&#45;&gt;AppModule</title>
<path fill="none" stroke="black" d="M903,-84.82C903,-102.17 903,-125.8 903,-125.8 903,-125.8 730.87,-125.8 730.87,-125.8"/>
<polygon fill="black" stroke="black" points="730.87,-122.3 720.87,-125.8 730.87,-129.3 730.87,-122.3"/>
</g>
<!-- AreasModule -->
<g id="node3" class="node">
<title>AreasModule</title>
<polygon fill="#8dd3c7" stroke="black" points="833.19,-84.8 830.19,-88.8 809.19,-88.8 806.19,-84.8 740.81,-84.8 740.81,-48.8 833.19,-48.8 833.19,-84.8"/>
<text text-anchor="middle" x="787" y="-62.6" font-family="Times,serif" font-size="14.00">AreasModule</text>
</g>
<!-- AreasModule&#45;&gt;AppModule -->
<g id="edge3" class="edge">
<title>AreasModule&#45;&gt;AppModule</title>
<path fill="none" stroke="black" d="M787,-85.04C787,-100.37 787,-119.8 787,-119.8 787,-119.8 730.76,-119.8 730.76,-119.8"/>
<polygon fill="black" stroke="black" points="730.76,-116.3 720.76,-119.8 730.76,-123.3 730.76,-116.3"/>
</g>
<!-- AuthModule -->
<g id="node4" class="node">
<title>AuthModule</title>
<polygon fill="#8dd3c7" stroke="black" points="722.55,-84.8 719.55,-88.8 698.55,-88.8 695.55,-84.8 635.45,-84.8 635.45,-48.8 722.55,-48.8 722.55,-84.8"/>
<text text-anchor="middle" x="679" y="-62.6" font-family="Times,serif" font-size="14.00">AuthModule</text>
</g>
<!-- AuthModule&#45;&gt;AppModule -->
<g id="edge4" class="edge">
<title>AuthModule&#45;&gt;AppModule</title>
<path fill="none" stroke="black" d="M679,-84.91C679,-84.91 679,-103.79 679,-103.79"/>
<polygon fill="black" stroke="black" points="675.5,-103.79 679,-113.79 682.5,-103.79 675.5,-103.79"/>
</g>
<!-- OauthModule -->
<g id="node5" class="node">
<title>OauthModule</title>
<polygon fill="#8dd3c7" stroke="black" points="616.76,-84.8 613.76,-88.8 592.76,-88.8 589.76,-84.8 523.24,-84.8 523.24,-48.8 616.76,-48.8 616.76,-84.8"/>
<text text-anchor="middle" x="570" y="-62.6" font-family="Times,serif" font-size="14.00">OauthModule</text>
</g>
<!-- OauthModule&#45;&gt;AppModule -->
<g id="edge5" class="edge">
<title>OauthModule&#45;&gt;AppModule</title>
<path fill="none" stroke="black" d="M570,-85.04C570,-100.37 570,-119.8 570,-119.8 570,-119.8 627.17,-119.8 627.17,-119.8"/>
<polygon fill="black" stroke="black" points="627.17,-123.3 637.17,-119.8 627.17,-116.3 627.17,-123.3"/>
</g>
<!-- ReactionsModule -->
<g id="node6" class="node">
<title>ReactionsModule</title>
<polygon fill="#8dd3c7" stroke="black" points="505.26,-84.8 502.26,-88.8 481.26,-88.8 478.26,-84.8 390.74,-84.8 390.74,-48.8 505.26,-48.8 505.26,-84.8"/>
<text text-anchor="middle" x="448" y="-62.6" font-family="Times,serif" font-size="14.00">ReactionsModule</text>
</g>
<!-- ReactionsModule&#45;&gt;AppModule -->
<g id="edge6" class="edge">
<title>ReactionsModule&#45;&gt;AppModule</title>
<path fill="none" stroke="black" d="M448,-84.82C448,-102.17 448,-125.8 448,-125.8 448,-125.8 627.17,-125.8 627.17,-125.8"/>
<polygon fill="black" stroke="black" points="627.17,-129.3 637.17,-125.8 627.17,-122.3 627.17,-129.3"/>
</g>
<!-- ServicesModule -->
<g id="node7" class="node">
<title>ServicesModule</title>
<polygon fill="#8dd3c7" stroke="black" points="372.47,-84.8 369.47,-88.8 348.47,-88.8 345.47,-84.8 265.53,-84.8 265.53,-48.8 372.47,-48.8 372.47,-84.8"/>
<text text-anchor="middle" x="319" y="-62.6" font-family="Times,serif" font-size="14.00">ServicesModule</text>
</g>
<!-- ServicesModule&#45;&gt;AppModule -->
<g id="edge7" class="edge">
<title>ServicesModule&#45;&gt;AppModule</title>
<path fill="none" stroke="black" d="M319,-84.91C319,-104.14 319,-131.8 319,-131.8 319,-131.8 627,-131.8 627,-131.8"/>
<polygon fill="black" stroke="black" points="627,-135.3 637,-131.8 627,-128.3 627,-135.3"/>
</g>
<!-- UserModule -->
<g id="node8" class="node">
<title>UserModule</title>
<polygon fill="#8dd3c7" stroke="black" points="247.98,-84.8 244.98,-88.8 223.98,-88.8 220.98,-84.8 162.02,-84.8 162.02,-48.8 247.98,-48.8 247.98,-84.8"/>
<text text-anchor="middle" x="205" y="-62.6" font-family="Times,serif" font-size="14.00">UserModule</text>
</g>
<!-- UserModule&#45;&gt;AppModule -->
<g id="edge8" class="edge">
<title>UserModule&#45;&gt;AppModule</title>
<path fill="none" stroke="black" d="M205,-85.08C205,-106.12 205,-137.8 205,-137.8 205,-137.8 626.94,-137.8 626.94,-137.8"/>
<polygon fill="black" stroke="black" points="626.94,-141.3 636.94,-137.8 626.94,-134.3 626.94,-141.3"/>
</g>
<!-- WebhooksModule -->
<g id="node9" class="node">
<title>WebhooksModule</title>
<polygon fill="#8dd3c7" stroke="black" points="143.92,-84.8 140.92,-88.8 119.92,-88.8 116.92,-84.8 24.08,-84.8 24.08,-48.8 143.92,-48.8 143.92,-84.8"/>
<text text-anchor="middle" x="84" y="-62.6" font-family="Times,serif" font-size="14.00">WebhooksModule</text>
</g>
<!-- WebhooksModule&#45;&gt;AppModule -->
<g id="edge9" class="edge">
<title>WebhooksModule&#45;&gt;AppModule</title>
<path fill="none" stroke="black" d="M84,-84.89C84,-107.93 84,-144.8 84,-144.8 84,-144.8 627.16,-144.8 627.16,-144.8"/>
<polygon fill="black" stroke="black" points="627.16,-148.3 637.16,-144.8 627.16,-141.3 627.16,-148.3"/>
</g>
<!-- AppService -->
<g id="node11" class="node">
<title>AppService</title>
<ellipse fill="#fdb462" stroke="black" cx="1311" cy="-66.8" rx="56.74" ry="18"/>
<text text-anchor="middle" x="1311" y="-62.6" font-family="Times,serif" font-size="14.00">AppService</text>
</g>
<!-- AppService&#45;&gt;AppModule -->
<g id="edge10" class="edge">
<title>AppService&#45;&gt;AppModule</title>
<path fill="none" stroke="black" d="M1311,-84.89C1311,-107.93 1311,-144.8 1311,-144.8 1311,-144.8 730.96,-144.8 730.96,-144.8"/>
<polygon fill="black" stroke="black" points="730.96,-141.3 720.96,-144.8 730.96,-148.3 730.96,-141.3"/>
</g>
<!-- ServicesService -->
<g id="node12" class="node">
<title>ServicesService</title>
<ellipse fill="#fdb462" stroke="black" cx="1164" cy="-66.8" rx="72.91" ry="18"/>
<text text-anchor="middle" x="1164" y="-62.6" font-family="Times,serif" font-size="14.00">ServicesService</text>
</g>
<!-- ServicesService&#45;&gt;AppModule -->
<g id="edge11" class="edge">
<title>ServicesService&#45;&gt;AppModule</title>
<path fill="none" stroke="black" d="M1164,-85.08C1164,-106.12 1164,-137.8 1164,-137.8 1164,-137.8 730.77,-137.8 730.77,-137.8"/>
<polygon fill="black" stroke="black" points="730.77,-134.3 720.77,-137.8 730.77,-141.3 730.77,-134.3"/>
</g>
</g>
</svg>
