<?xml version="1.0" encoding="UTF-8" standalone="no"?>
<!DOCTYPE svg PUBLIC "-//W3C//DTD SVG 1.1//EN"
 "http://www.w3.org/Graphics/SVG/1.1/DTD/svg11.dtd">
<!-- Generated by graphviz version 2.47.3 (20210619.1520)
 -->
<!-- Title: dependencies Pages: 1 -->
<svg width="342pt" height="174pt"
 viewBox="0.00 0.00 342.00 173.80" xmlns="http://www.w3.org/2000/svg" xmlns:xlink="http://www.w3.org/1999/xlink">
<g id="graph0" class="graph" transform="scale(1 1) rotate(0) translate(4 169.8)">
<title>dependencies</title>
<polygon fill="white" stroke="transparent" points="-4,4 -4,-169.8 338,-169.8 338,4 -4,4"/>
<text text-anchor="middle" x="167" y="-8.2" font-family="sans-serif" font-size="14.00">dependencies</text>
<g id="clust1" class="cluster">
<title>cluster_ActionsModule</title>
<polygon fill="none" stroke="black" stroke-dasharray="1,5" points="8,-32.8 8,-157.8 326,-157.8 326,-32.8 8,-32.8"/>
</g>
<g id="clust6" class="cluster">
<title>cluster_ActionsModule_providers</title>
<polygon fill="none" stroke="black" points="16,-40.8 16,-92.8 318,-92.8 318,-40.8 16,-40.8"/>
</g>
<!-- ActionsService -->
<g id="node1" class="node">
<title>ActionsService</title>
<ellipse fill="#fdb462" stroke="black" cx="240" cy="-66.8" rx="70.06" ry="18"/>
<text text-anchor="middle" x="240" y="-62.6" font-family="Times,serif" font-size="14.00">ActionsService</text>
</g>
<!-- ActionsModule -->
<g id="node3" class="node">
<title>ActionsModule</title>
<polygon fill="#8dd3c7" stroke="black" points="215.6,-149.8 212.6,-153.8 191.6,-153.8 188.6,-149.8 112.4,-149.8 112.4,-113.8 215.6,-113.8 215.6,-149.8"/>
<text text-anchor="middle" x="164" y="-127.6" font-family="Times,serif" font-size="14.00">ActionsModule</text>
</g>
<!-- ActionsService&#45;&gt;ActionsModule -->
<g id="edge1" class="edge">
<title>ActionsService&#45;&gt;ActionsModule</title>
<path fill="none" stroke="black" d="M192.76,-80.27C192.76,-80.27 192.76,-103.66 192.76,-103.66"/>
<polygon fill="black" stroke="black" points="189.26,-103.66 192.76,-113.66 196.26,-103.66 189.26,-103.66"/>
</g>
<!-- OauthService -->
<g id="node2" class="node">
<title>OauthService</title>
<ellipse fill="#fdb462" stroke="black" cx="88" cy="-66.8" rx="63.68" ry="18"/>
<text text-anchor="middle" x="88" y="-62.6" font-family="Times,serif" font-size="14.00">OauthService</text>
</g>
<!-- OauthService&#45;&gt;ActionsModule -->
<g id="edge2" class="edge">
<title>OauthService&#45;&gt;ActionsModule</title>
<path fill="none" stroke="black" d="M132.02,-79.95C132.02,-79.95 132.02,-103.49 132.02,-103.49"/>
<polygon fill="black" stroke="black" points="128.52,-103.49 132.02,-113.49 135.52,-103.49 128.52,-103.49"/>
</g>
</g>
</svg>
