<?xml version="1.0" encoding="UTF-8" standalone="no"?>
<!DOCTYPE svg PUBLIC "-//W3C//DTD SVG 1.1//EN"
 "http://www.w3.org/Graphics/SVG/1.1/DTD/svg11.dtd">
<!-- Generated by graphviz version 2.47.3 (20210619.1520)
 -->
<!-- Title: dependencies Pages: 1 -->
<svg width="2301pt" height="326pt"
 viewBox="0.00 0.00 2301.00 325.80" xmlns="http://www.w3.org/2000/svg" xmlns:xlink="http://www.w3.org/1999/xlink">
<g id="graph0" class="graph" transform="scale(1 1) rotate(0) translate(4 321.8)">
<title>dependencies</title>
<polygon fill="white" stroke="transparent" points="-4,4 -4,-321.8 2297,-321.8 2297,4 -4,4"/>
<text text-anchor="middle" x="1146.5" y="-8.2" font-family="sans-serif" font-size="14.00">dependencies</text>
<g id="clust1" class="cluster">
<title>cluster_AboutModule</title>
<polygon fill="none" stroke="black" stroke-dasharray="1,5" points="8,-108.8 8,-244.8 168,-244.8 168,-108.8 8,-108.8"/>
</g>
<g id="clust6" class="cluster">
<title>cluster_AboutModule_providers</title>
<polygon fill="none" stroke="black" points="16,-116.8 16,-168.8 160,-168.8 160,-116.8 16,-116.8"/>
</g>
<g id="clust7" class="cluster">
<title>cluster_ActionsModule</title>
<polygon fill="none" stroke="black" stroke-dasharray="1,5" points="1967,-32.8 1967,-168.8 2285,-168.8 2285,-32.8 1967,-32.8"/>
</g>
<g id="clust12" class="cluster">
<title>cluster_ActionsModule_providers</title>
<polygon fill="none" stroke="black" points="1975,-40.8 1975,-92.8 2277,-92.8 2277,-40.8 1975,-40.8"/>
</g>
<g id="clust13" class="cluster">
<title>cluster_AppModule</title>
<polygon fill="none" stroke="black" stroke-dasharray="1,5" points="548,-32.8 548,-309.8 1314,-309.8 1314,-32.8 548,-32.8"/>
</g>
<g id="clust15" class="cluster">
<title>cluster_AppModule_imports</title>
<polygon fill="none" stroke="black" points="588,-116.8 588,-244.8 1306,-244.8 1306,-116.8 588,-116.8"/>
</g>
<g id="clust18" class="cluster">
<title>cluster_AppModule_providers</title>
<polygon fill="none" stroke="black" points="556,-40.8 556,-92.8 849,-92.8 849,-40.8 556,-40.8"/>
</g>
<g id="clust19" class="cluster">
<title>cluster_AreasModule</title>
<polygon fill="none" stroke="black" stroke-dasharray="1,5" points="1322,-32.8 1322,-100.8 1601,-100.8 1601,-32.8 1322,-32.8"/>
</g>
<g id="clust24" class="cluster">
<title>cluster_AreasModule_providers</title>
<polygon fill="none" stroke="black" points="1330,-40.8 1330,-92.8 1593,-92.8 1593,-40.8 1330,-40.8"/>
</g>
<g id="clust25" class="cluster">
<title>cluster_AuthModule</title>
<polygon fill="none" stroke="black" stroke-dasharray="1,5" points="1322,-108.8 1322,-176.8 1480,-176.8 1480,-108.8 1322,-108.8"/>
</g>
<g id="clust30" class="cluster">
<title>cluster_AuthModule_providers</title>
<polygon fill="none" stroke="black" points="1330,-116.8 1330,-168.8 1472,-168.8 1472,-116.8 1330,-116.8"/>
</g>
<g id="clust37" class="cluster">
<title>cluster_ReactionsModule</title>
<polygon fill="none" stroke="black" stroke-dasharray="1,5" points="1609,-32.8 1609,-100.8 1757,-100.8 1757,-32.8 1609,-32.8"/>
</g>
<g id="clust42" class="cluster">
<title>cluster_ReactionsModule_providers</title>
<polygon fill="none" stroke="black" points="1617,-40.8 1617,-92.8 1749,-92.8 1749,-40.8 1617,-40.8"/>
</g>
<g id="clust43" class="cluster">
<title>cluster_ServicesModule</title>
<polygon fill="none" stroke="black" stroke-dasharray="1,5" points="176,-184.8 176,-252.8 316,-252.8 316,-184.8 176,-184.8"/>
</g>
<g id="clust46" class="cluster">
<title>cluster_ServicesModule_exports</title>
<polygon fill="none" stroke="black" points="184,-192.8 184,-244.8 308,-244.8 308,-192.8 184,-192.8"/>
</g>
<g id="clust49" class="cluster">
<title>cluster_UserModule</title>
<polygon fill="none" stroke="black" stroke-dasharray="1,5" points="324,-184.8 324,-252.8 540,-252.8 540,-184.8 324,-184.8"/>
</g>
<g id="clust52" class="cluster">
<title>cluster_UserModule_exports</title>
<polygon fill="none" stroke="black" points="332,-192.8 332,-244.8 532,-244.8 532,-192.8 332,-192.8"/>
</g>
<g id="clust55" class="cluster">
<title>cluster_WebhooksModule</title>
<polygon fill="none" stroke="black" stroke-dasharray="1,5" points="1765,-32.8 1765,-100.8 1959,-100.8 1959,-32.8 1765,-32.8"/>
</g>
<g id="clust60" class="cluster">
<title>cluster_WebhooksModule_providers</title>
<polygon fill="none" stroke="black" points="1773,-40.8 1773,-92.8 1951,-92.8 1951,-40.8 1773,-40.8"/>
</g>
<!-- AboutService -->
<g id="node1" class="node">
<title>AboutService</title>
<ellipse fill="#fdb462" stroke="black" cx="88" cy="-142.8" rx="64.26" ry="18"/>
<text text-anchor="middle" x="88" y="-138.6" font-family="Times,serif" font-size="14.00">AboutService</text>
</g>
<!-- AboutModule -->
<g id="node2" class="node">
<title>AboutModule</title>
<polygon fill="#8dd3c7" stroke="black" points="147.05,-236.8 144.05,-240.8 123.05,-240.8 120.05,-236.8 52.95,-236.8 52.95,-200.8 147.05,-200.8 147.05,-236.8"/>
<text text-anchor="middle" x="100" y="-214.6" font-family="Times,serif" font-size="14.00">AboutModule</text>
</g>
<!-- AboutService&#45;&gt;AboutModule -->
<g id="edge1" class="edge">
<title>AboutService&#45;&gt;AboutModule</title>
<path fill="none" stroke="black" d="M100,-160.81C100,-160.81 100,-190.65 100,-190.65"/>
<polygon fill="black" stroke="black" points="96.5,-190.65 100,-200.65 103.5,-190.65 96.5,-190.65"/>
</g>
<!-- AppModule -->
<g id="node13" class="node">
<title>AppModule</title>
<polygon fill="#8dd3c7" stroke="black" points="897.66,-301.8 894.66,-305.8 873.66,-305.8 870.66,-301.8 814.34,-301.8 814.34,-265.8 897.66,-265.8 897.66,-301.8"/>
<text text-anchor="middle" x="856" y="-279.6" font-family="Times,serif" font-size="14.00">AppModule</text>
</g>
<!-- AboutModule&#45;&gt;AppModule -->
<g id="edge4" class="edge">
<title>AboutModule&#45;&gt;AppModule</title>
<path fill="none" stroke="black" d="M100,-237.09C100,-259.01 100,-292.8 100,-292.8 100,-292.8 804.28,-292.8 804.28,-292.8"/>
<polygon fill="black" stroke="black" points="804.28,-296.3 814.28,-292.8 804.28,-289.3 804.28,-296.3"/>
</g>
<!-- ActionsService -->
<g id="node3" class="node">
<title>ActionsService</title>
<ellipse fill="#fdb462" stroke="black" cx="2053" cy="-66.8" rx="70.06" ry="18"/>
<text text-anchor="middle" x="2053" y="-62.6" font-family="Times,serif" font-size="14.00">ActionsService</text>
</g>
<!-- ActionsModule -->
<g id="node5" class="node">
<title>ActionsModule</title>
<polygon fill="#8dd3c7" stroke="black" points="2104.6,-160.8 2101.6,-164.8 2080.6,-164.8 2077.6,-160.8 2001.4,-160.8 2001.4,-124.8 2104.6,-124.8 2104.6,-160.8"/>
<text text-anchor="middle" x="2053" y="-138.6" font-family="Times,serif" font-size="14.00">ActionsModule</text>
</g>
<!-- ActionsService&#45;&gt;ActionsModule -->
<g id="edge2" class="edge">
<title>ActionsService&#45;&gt;ActionsModule</title>
<path fill="none" stroke="black" d="M2053,-84.81C2053,-84.81 2053,-114.65 2053,-114.65"/>
<polygon fill="black" stroke="black" points="2049.5,-114.65 2053,-124.65 2056.5,-114.65 2049.5,-114.65"/>
</g>
<!-- AreasModule -->
<g id="node6" class="node">
<title>AreasModule</title>
<polygon fill="#8dd3c7" stroke="black" points="1048.19,-160.8 1045.19,-164.8 1024.19,-164.8 1021.19,-160.8 955.81,-160.8 955.81,-124.8 1048.19,-124.8 1048.19,-160.8"/>
<text text-anchor="middle" x="1002" y="-138.6" font-family="Times,serif" font-size="14.00">AreasModule</text>
</g>
<!-- ActionsService&#45;&gt;AreasModule -->
<g id="edge15" class="edge">
<title>ActionsService&#45;&gt;AreasModule</title>
<path fill="none" stroke="black" d="M1992.21,-76.08C1992.21,-87.89 1992.21,-106.8 1992.21,-106.8 1992.21,-106.8 1011.22,-106.8 1011.22,-106.8 1011.22,-106.8 1011.22,-114.38 1011.22,-114.38"/>
<polygon fill="black" stroke="black" points="1007.72,-114.38 1011.22,-124.38 1014.72,-114.38 1007.72,-114.38"/>
</g>
<!-- UserModule -->
<g id="node11" class="node">
<title>UserModule</title>
<polygon fill="#8dd3c7" stroke="black" points="805.98,-160.8 802.98,-164.8 781.98,-164.8 778.98,-160.8 720.02,-160.8 720.02,-124.8 805.98,-124.8 805.98,-160.8"/>
<text text-anchor="middle" x="763" y="-138.6" font-family="Times,serif" font-size="14.00">UserModule</text>
</g>
<!-- ActionsService&#45;&gt;UserModule -->
<g id="edge27" class="edge">
<title>ActionsService&#45;&gt;UserModule</title>
<path fill="none" stroke="black" d="M1987.59,-73.24C1987.59,-81.78 1987.59,-95.8 1987.59,-95.8 1987.59,-95.8 777.33,-95.8 777.33,-95.8 777.33,-95.8 777.33,-114.76 777.33,-114.76"/>
<polygon fill="black" stroke="black" points="773.83,-114.76 777.33,-124.76 780.83,-114.76 773.83,-114.76"/>
</g>
<!-- WebhooksModule -->
<g id="node12" class="node">
<title>WebhooksModule</title>
<polygon fill="#8dd3c7" stroke="black" points="1185.92,-160.8 1182.92,-164.8 1161.92,-164.8 1158.92,-160.8 1066.08,-160.8 1066.08,-124.8 1185.92,-124.8 1185.92,-160.8"/>
<text text-anchor="middle" x="1126" y="-138.6" font-family="Times,serif" font-size="14.00">WebhooksModule</text>
</g>
<!-- ActionsService&#45;&gt;WebhooksModule -->
<g id="edge32" class="edge">
<title>ActionsService&#45;&gt;WebhooksModule</title>
<path fill="none" stroke="black" d="M1996.83,-77.9C1996.83,-92.63 1996.83,-116.8 1996.83,-116.8 1996.83,-116.8 1137.94,-116.8 1137.94,-116.8 1137.94,-116.8 1137.94,-117.59 1137.94,-117.59"/>
<polygon fill="black" stroke="black" points="1134.44,-114.74 1137.94,-124.74 1141.44,-114.74 1134.44,-114.74"/>
</g>
<!-- OauthService -->
<g id="node4" class="node">
<title>OauthService</title>
<ellipse fill="#fdb462" stroke="black" cx="2205" cy="-66.8" rx="63.68" ry="18"/>
<text text-anchor="middle" x="2205" y="-62.6" font-family="Times,serif" font-size="14.00">OauthService</text>
</g>
<!-- OauthService&#45;&gt;ActionsModule -->
<g id="edge3" class="edge">
<title>OauthService&#45;&gt;ActionsModule</title>
<path fill="none" stroke="black" d="M2247.39,-80.39C2247.39,-102.25 2247.39,-142.8 2247.39,-142.8 2247.39,-142.8 2114.58,-142.8 2114.58,-142.8"/>
<polygon fill="black" stroke="black" points="2114.58,-139.3 2104.58,-142.8 2114.58,-146.3 2114.58,-139.3"/>
</g>
<!-- OauthService&#45;&gt;AreasModule -->
<g id="edge17" class="edge">
<title>OauthService&#45;&gt;AreasModule</title>
<path fill="none" stroke="black" d="M2183.8,-83.88C2183.8,-95.51 2183.8,-108.8 2183.8,-108.8 2183.8,-108.8 1029.66,-108.8 1029.66,-108.8 1029.66,-108.8 1029.66,-114.61 1029.66,-114.61"/>
<polygon fill="black" stroke="black" points="1026.16,-114.61 1029.66,-124.61 1033.16,-114.61 1026.16,-114.61"/>
</g>
<!-- OauthModule -->
<g id="node8" class="node">
<title>OauthModule</title>
<polygon fill="#8dd3c7" stroke="black" points="1297.76,-160.8 1294.76,-164.8 1273.76,-164.8 1270.76,-160.8 1204.24,-160.8 1204.24,-124.8 1297.76,-124.8 1297.76,-160.8"/>
<text text-anchor="middle" x="1251" y="-138.6" font-family="Times,serif" font-size="14.00">OauthModule</text>
</g>
<!-- OauthService&#45;&gt;OauthModule -->
<g id="edge21" class="edge">
<title>OauthService&#45;&gt;OauthModule</title>
<path fill="none" stroke="black" d="M2226.2,-83.91C2226.2,-100.37 2226.2,-122.8 2226.2,-122.8 2226.2,-122.8 1251,-122.8 1251,-122.8 1251,-122.8 1251,-122.98 1251,-122.98"/>
<polygon fill="black" stroke="black" points="1247.5,-114.65 1251,-124.65 1254.5,-114.65 1247.5,-114.65"/>
</g>
<!-- OauthService&#45;&gt;UserModule -->
<g id="edge29" class="edge">
<title>OauthService&#45;&gt;UserModule</title>
<path fill="none" stroke="black" d="M2162.61,-80.56C2162.61,-89.23 2162.61,-98.8 2162.61,-98.8 2162.61,-98.8 791.66,-98.8 791.66,-98.8 791.66,-98.8 791.66,-114.65 791.66,-114.65"/>
<polygon fill="black" stroke="black" points="788.16,-114.65 791.66,-124.65 795.16,-114.65 788.16,-114.65"/>
</g>
<!-- OauthService&#45;&gt;WebhooksModule -->
<g id="edge34" class="edge">
<title>OauthService&#45;&gt;WebhooksModule</title>
<path fill="none" stroke="black" d="M2205,-85.04C2205,-100.37 2205,-119.8 2205,-119.8 2205,-119.8 1161.83,-119.8 1161.83,-119.8 1161.83,-119.8 1161.83,-120.29 1161.83,-120.29"/>
<polygon fill="black" stroke="black" points="1158.33,-114.68 1161.83,-124.68 1165.33,-114.68 1158.33,-114.68"/>
</g>
<!-- ActionsModule&#45;&gt;AppModule -->
<g id="edge5" class="edge">
<title>ActionsModule&#45;&gt;AppModule</title>
<path fill="none" stroke="black" d="M2053,-160.83C2053,-201.1 2053,-294.8 2053,-294.8 2053,-294.8 907.9,-294.8 907.9,-294.8"/>
<polygon fill="black" stroke="black" points="907.9,-291.3 897.9,-294.8 907.9,-298.3 907.9,-291.3"/>
</g>
<!-- AreasModule&#45;&gt;AppModule -->
<g id="edge6" class="edge">
<title>AreasModule&#45;&gt;AppModule</title>
<path fill="none" stroke="black" d="M1035.43,-161.01C1035.43,-197.01 1035.43,-273.8 1035.43,-273.8 1035.43,-273.8 908.07,-273.8 908.07,-273.8"/>
<polygon fill="black" stroke="black" points="908.07,-270.3 898.07,-273.8 908.07,-277.3 908.07,-270.3"/>
</g>
<!-- AuthModule -->
<g id="node7" class="node">
<title>AuthModule</title>
<polygon fill="#8dd3c7" stroke="black" points="1022.55,-236.8 1019.55,-240.8 998.55,-240.8 995.55,-236.8 935.45,-236.8 935.45,-200.8 1022.55,-200.8 1022.55,-236.8"/>
<text text-anchor="middle" x="979" y="-214.6" font-family="Times,serif" font-size="14.00">AuthModule</text>
</g>
<!-- AuthModule&#45;&gt;AppModule -->
<g id="edge7" class="edge">
<title>AuthModule&#45;&gt;AppModule</title>
<path fill="none" stroke="black" d="M935.31,-227.8C906.14,-227.8 873.09,-227.8 873.09,-227.8 873.09,-227.8 873.09,-255.77 873.09,-255.77"/>
<polygon fill="black" stroke="black" points="869.59,-255.77 873.09,-265.77 876.59,-255.77 869.59,-255.77"/>
</g>
<!-- OauthModule&#45;&gt;AppModule -->
<g id="edge8" class="edge">
<title>OauthModule&#45;&gt;AppModule</title>
<path fill="none" stroke="black" d="M1251,-160.87C1251,-199.74 1251,-287.8 1251,-287.8 1251,-287.8 907.9,-287.8 907.9,-287.8"/>
<polygon fill="black" stroke="black" points="907.9,-284.3 897.9,-287.8 907.9,-291.3 907.9,-284.3"/>
</g>
<!-- ReactionsModule -->
<g id="node9" class="node">
<title>ReactionsModule</title>
<polygon fill="#8dd3c7" stroke="black" points="938.26,-160.8 935.26,-164.8 914.26,-164.8 911.26,-160.8 823.74,-160.8 823.74,-124.8 938.26,-124.8 938.26,-160.8"/>
<text text-anchor="middle" x="881" y="-138.6" font-family="Times,serif" font-size="14.00">ReactionsModule</text>
</g>
<!-- ReactionsModule&#45;&gt;AppModule -->
<g id="edge9" class="edge">
<title>ReactionsModule&#45;&gt;AppModule</title>
<path fill="none" stroke="black" d="M848.36,-160.94C848.36,-160.94 848.36,-255.73 848.36,-255.73"/>
<polygon fill="black" stroke="black" points="844.86,-255.72 848.36,-265.73 851.86,-255.73 844.86,-255.72"/>
</g>
<!-- ServicesModule -->
<g id="node10" class="node">
<title>ServicesModule</title>
<polygon fill="#8dd3c7" stroke="black" points="702.47,-160.8 699.47,-164.8 678.47,-164.8 675.47,-160.8 595.53,-160.8 595.53,-124.8 702.47,-124.8 702.47,-160.8"/>
<text text-anchor="middle" x="649" y="-138.6" font-family="Times,serif" font-size="14.00">ServicesModule</text>
</g>
<!-- ServicesModule&#45;&gt;AppModule -->
<g id="edge10" class="edge">
<title>ServicesModule&#45;&gt;AppModule</title>
<path fill="none" stroke="black" d="M649,-160.88C649,-197.03 649,-274.8 649,-274.8 649,-274.8 804.11,-274.8 804.11,-274.8"/>
<polygon fill="black" stroke="black" points="804.11,-278.3 814.11,-274.8 804.11,-271.3 804.11,-278.3"/>
</g>
<!-- ServicesService  -->
<g id="node20" class="node">
<title>ServicesService </title>
<polygon fill="#fb8072" stroke="black" points="300.4,-236.8 191.6,-236.8 191.6,-200.8 300.4,-200.8 300.4,-236.8"/>
<text text-anchor="middle" x="246" y="-214.6" font-family="Times,serif" font-size="14.00">ServicesService </text>
</g>
<!-- ServicesModule&#45;&gt;ServicesService  -->
<g id="edge23" class="edge">
<title>ServicesModule&#45;&gt;ServicesService </title>
<path fill="none" stroke="black" stroke-dasharray="5,2" d="M595.48,-142.8C485.86,-142.8 246,-142.8 246,-142.8 246,-142.8 246,-190.79 246,-190.79"/>
<polygon fill="black" stroke="black" points="242.5,-190.79 246,-200.79 249.5,-190.79 242.5,-190.79"/>
</g>
<!-- UserModule&#45;&gt;AuthModule -->
<g id="edge19" class="edge">
<title>UserModule&#45;&gt;AuthModule</title>
<path fill="none" stroke="black" d="M784.49,-160.81C784.49,-183.29 784.49,-218.8 784.49,-218.8 784.49,-218.8 925.35,-218.8 925.35,-218.8"/>
<polygon fill="black" stroke="black" points="925.35,-222.3 935.35,-218.8 925.35,-215.3 925.35,-222.3"/>
</g>
<!-- UserModule&#45;&gt;AppModule -->
<g id="edge11" class="edge">
<title>UserModule&#45;&gt;AppModule</title>
<path fill="none" stroke="black" d="M806.07,-142.8C812.66,-142.8 817.32,-142.8 817.32,-142.8 817.32,-142.8 817.32,-255.66 817.32,-255.66"/>
<polygon fill="black" stroke="black" points="813.82,-255.66 817.32,-265.66 820.82,-255.66 813.82,-255.66"/>
</g>
<!-- UserAreas  -->
<g id="node21" class="node">
<title>UserAreas </title>
<polygon fill="#fb8072" stroke="black" points="524.07,-236.8 445.93,-236.8 445.93,-200.8 524.07,-200.8 524.07,-236.8"/>
<text text-anchor="middle" x="485" y="-214.6" font-family="Times,serif" font-size="14.00">UserAreas </text>
</g>
<!-- UserModule&#45;&gt;UserAreas  -->
<g id="edge25" class="edge">
<title>UserModule&#45;&gt;UserAreas </title>
<path fill="none" stroke="black" stroke-dasharray="5,2" d="M763,-161.11C763,-180.95 763,-209.8 763,-209.8 763,-209.8 534.24,-209.8 534.24,-209.8"/>
<polygon fill="black" stroke="black" points="534.24,-206.3 524.24,-209.8 534.24,-213.3 534.24,-206.3"/>
</g>
<!-- UserService  -->
<g id="node22" class="node">
<title>UserService </title>
<polygon fill="#fb8072" stroke="black" points="427.9,-236.8 340.1,-236.8 340.1,-200.8 427.9,-200.8 427.9,-236.8"/>
<text text-anchor="middle" x="384" y="-214.6" font-family="Times,serif" font-size="14.00">UserService </text>
</g>
<!-- UserModule&#45;&gt;UserService  -->
<g id="edge26" class="edge">
<title>UserModule&#45;&gt;UserService </title>
<path fill="none" stroke="black" stroke-dasharray="5,2" d="M741.51,-160.91C741.51,-170.7 741.51,-180.8 741.51,-180.8 741.51,-180.8 384,-180.8 384,-180.8 384,-180.8 384,-190.69 384,-190.69"/>
<polygon fill="black" stroke="black" points="380.5,-190.69 384,-200.69 387.5,-190.69 380.5,-190.69"/>
</g>
<!-- WebhooksModule&#45;&gt;AppModule -->
<g id="edge12" class="edge">
<title>WebhooksModule&#45;&gt;AppModule</title>
<path fill="none" stroke="black" d="M1126,-160.84C1126,-198.25 1126,-280.8 1126,-280.8 1126,-280.8 907.89,-280.8 907.89,-280.8"/>
<polygon fill="black" stroke="black" points="907.89,-277.3 897.89,-280.8 907.89,-284.3 907.89,-277.3"/>
</g>
<!-- AppService -->
<g id="node14" class="node">
<title>AppService</title>
<ellipse fill="#fdb462" stroke="black" cx="621" cy="-66.8" rx="56.74" ry="18"/>
<text text-anchor="middle" x="621" y="-62.6" font-family="Times,serif" font-size="14.00">AppService</text>
</g>
<!-- AppService&#45;&gt;AppModule -->
<g id="edge13" class="edge">
<title>AppService&#45;&gt;AppModule</title>
<path fill="none" stroke="black" d="M579.95,-79.4C579.95,-125.72 579.95,-283.8 579.95,-283.8 579.95,-283.8 804.07,-283.8 804.07,-283.8"/>
<polygon fill="black" stroke="black" points="804.07,-287.3 814.07,-283.8 804.07,-280.3 804.07,-287.3"/>
</g>
<!-- ServicesService -->
<g id="node15" class="node">
<title>ServicesService</title>
<ellipse fill="#fdb462" stroke="black" cx="768" cy="-66.8" rx="72.91" ry="18"/>
<text text-anchor="middle" x="768" y="-62.6" font-family="Times,serif" font-size="14.00">ServicesService</text>
</g>
<!-- ServicesService&#45;&gt;ServicesModule -->
<g id="edge24" class="edge">
<title>ServicesService&#45;&gt;ServicesModule</title>
<path fill="none" stroke="black" d="M698.89,-72.76C698.89,-72.76 698.89,-114.73 698.89,-114.73"/>
<polygon fill="black" stroke="black" points="695.39,-114.73 698.89,-124.73 702.39,-114.73 695.39,-114.73"/>
</g>
<!-- ServicesService&#45;&gt;AppModule -->
<g id="edge14" class="edge">
<title>ServicesService&#45;&gt;AppModule</title>
<path fill="none" stroke="black" d="M820.47,-79.4C820.47,-79.4 820.47,-255.55 820.47,-255.55"/>
<polygon fill="black" stroke="black" points="816.97,-255.55 820.47,-265.55 823.97,-255.55 816.97,-255.55"/>
</g>
<!-- AreasService -->
<g id="node16" class="node">
<title>AreasService</title>
<ellipse fill="#fdb462" stroke="black" cx="1522" cy="-66.8" rx="62.51" ry="18"/>
<text text-anchor="middle" x="1522" y="-62.6" font-family="Times,serif" font-size="14.00">AreasService</text>
</g>
<!-- AreasService&#45;&gt;AreasModule -->
<g id="edge16" class="edge">
<title>AreasService&#45;&gt;AreasModule</title>
<path fill="none" stroke="black" d="M1524.02,-84.87C1524.02,-94.26 1524.02,-103.8 1524.02,-103.8 1524.02,-103.8 992.78,-103.8 992.78,-103.8 992.78,-103.8 992.78,-114.67 992.78,-114.67"/>
<polygon fill="black" stroke="black" points="989.28,-114.67 992.78,-124.67 996.28,-114.67 989.28,-114.67"/>
</g>
<!-- AreasService&#45;&gt;UserModule -->
<g id="edge28" class="edge">
<title>AreasService&#45;&gt;UserModule</title>
<path fill="none" stroke="black" d="M1493.77,-82.94C1493.77,-87.28 1493.77,-90.8 1493.77,-90.8 1493.77,-90.8 748.67,-90.8 748.67,-90.8 748.67,-90.8 748.67,-114.61 748.67,-114.61"/>
<polygon fill="black" stroke="black" points="745.17,-114.61 748.67,-124.61 752.17,-114.61 745.17,-114.61"/>
</g>
<!-- AreasService&#45;&gt;WebhooksModule -->
<g id="edge33" class="edge">
<title>AreasService&#45;&gt;WebhooksModule</title>
<path fill="none" stroke="black" d="M1554.26,-82.29C1554.26,-95.3 1554.26,-111.8 1554.26,-111.8 1554.26,-111.8 1090.17,-111.8 1090.17,-111.8 1090.17,-111.8 1090.17,-114.77 1090.17,-114.77"/>
<polygon fill="black" stroke="black" points="1086.67,-114.77 1090.17,-124.77 1093.67,-114.77 1086.67,-114.77"/>
</g>
<!-- UserAreas -->
<g id="node17" class="node">
<title>UserAreas</title>
<ellipse fill="#fdb462" stroke="black" cx="1390" cy="-66.8" rx="51.56" ry="18"/>
<text text-anchor="middle" x="1390" y="-62.6" font-family="Times,serif" font-size="14.00">UserAreas</text>
</g>
<!-- UserAreas&#45;&gt;AreasModule -->
<g id="edge18" class="edge">
<title>UserAreas&#45;&gt;AreasModule</title>
<path fill="none" stroke="black" d="M1338.2,-66.8C1226.77,-66.8 974.34,-66.8 974.34,-66.8 974.34,-66.8 974.34,-114.79 974.34,-114.79"/>
<polygon fill="black" stroke="black" points="970.84,-114.79 974.34,-124.79 977.84,-114.79 970.84,-114.79"/>
</g>
<!-- UserAreas&#45;&gt;UserModule -->
<g id="edge30" class="edge">
<title>UserAreas&#45;&gt;UserModule</title>
<path fill="none" stroke="black" d="M1390.13,-84.88C1390.13,-86.65 1390.13,-87.8 1390.13,-87.8 1390.13,-87.8 734.34,-87.8 734.34,-87.8 734.34,-87.8 734.34,-114.79 734.34,-114.79"/>
<polygon fill="black" stroke="black" points="730.84,-114.79 734.34,-124.79 737.84,-114.79 730.84,-114.79"/>
</g>
<!-- AuthStrategy -->
<g id="node18" class="node">
<title>AuthStrategy</title>
<ellipse fill="#fdb462" stroke="black" cx="1401" cy="-142.8" rx="62.56" ry="18"/>
<text text-anchor="middle" x="1401" y="-138.6" font-family="Times,serif" font-size="14.00">AuthStrategy</text>
</g>
<!-- AuthStrategy&#45;&gt;AuthModule -->
<g id="edge20" class="edge">
<title>AuthStrategy&#45;&gt;AuthModule</title>
<path fill="none" stroke="black" d="M1401,-160.81C1401,-183.29 1401,-218.8 1401,-218.8 1401,-218.8 1032.57,-218.8 1032.57,-218.8"/>
<polygon fill="black" stroke="black" points="1032.57,-215.3 1022.57,-218.8 1032.57,-222.3 1032.57,-215.3"/>
</g>
<!-- UserService -->
<g id="node19" class="node">
<title>UserService</title>
<ellipse fill="#fdb462" stroke="black" cx="1683" cy="-66.8" rx="58.44" ry="18"/>
<text text-anchor="middle" x="1683" y="-62.6" font-family="Times,serif" font-size="14.00">UserService</text>
</g>
<!-- UserService&#45;&gt;ReactionsModule -->
<g id="edge22" class="edge">
<title>UserService&#45;&gt;ReactionsModule</title>
<path fill="none" stroke="black" d="M1702.41,-83.8C1702.41,-92.3 1702.41,-100.8 1702.41,-100.8 1702.41,-100.8 889.54,-100.8 889.54,-100.8 889.54,-100.8 889.54,-114.74 889.54,-114.74"/>
<polygon fill="black" stroke="black" points="886.04,-114.74 889.54,-124.74 893.04,-114.74 886.04,-114.74"/>
</g>
<!-- UserService&#45;&gt;UserModule -->
<g id="edge31" class="edge">
<title>UserService&#45;&gt;UserModule</title>
<path fill="none" stroke="black" d="M1663.59,-84C1663.59,-88.83 1663.59,-92.8 1663.59,-92.8 1663.59,-92.8 763,-92.8 763,-92.8 763,-92.8 763,-114.75 763,-114.75"/>
<polygon fill="black" stroke="black" points="759.5,-114.75 763,-124.75 766.5,-114.75 759.5,-114.75"/>
</g>
<!-- WebhooksService -->
<g id="node23" class="node">
<title>WebhooksService</title>
<ellipse fill="#fdb462" stroke="black" cx="1862" cy="-66.8" rx="81.08" ry="18"/>
<text text-anchor="middle" x="1862" y="-62.6" font-family="Times,serif" font-size="14.00">WebhooksService</text>
</g>
<!-- WebhooksService&#45;&gt;WebhooksModule -->
<g id="edge35" class="edge">
<title>WebhooksService&#45;&gt;WebhooksModule</title>
<path fill="none" stroke="black" d="M1862,-84.95C1862,-98.54 1862,-114.8 1862,-114.8 1862,-114.8 1114.06,-114.8 1114.06,-114.8 1114.06,-114.8 1114.06,-115.78 1114.06,-115.78"/>
<polygon fill="black" stroke="black" points="1110.56,-114.59 1114.06,-124.59 1117.56,-114.59 1110.56,-114.59"/>
</g>
</g>
</svg>
