<?xml version="1.0" encoding="UTF-8" standalone="no"?>
<!DOCTYPE svg PUBLIC "-//W3C//DTD SVG 1.1//EN"
 "http://www.w3.org/Graphics/SVG/1.1/DTD/svg11.dtd">
<!-- Generated by graphviz version 2.47.3 (20210619.1520)
 -->
<!-- Title: dependencies Pages: 1 -->
<svg width="665pt" height="174pt"
 viewBox="0.00 0.00 665.00 173.80" xmlns="http://www.w3.org/2000/svg" xmlns:xlink="http://www.w3.org/1999/xlink">
<g id="graph0" class="graph" transform="scale(1 1) rotate(0) translate(4 169.8)">
<title>dependencies</title>
<polygon fill="white" stroke="transparent" points="-4,4 -4,-169.8 661,-169.8 661,4 -4,4"/>
<text text-anchor="middle" x="328.5" y="-8.2" font-family="sans-serif" font-size="14.00">dependencies</text>
<g id="clust1" class="cluster">
<title>cluster_WebhooksModule</title>
<polygon fill="none" stroke="black" stroke-dasharray="1,5" points="8,-32.8 8,-157.8 649,-157.8 649,-32.8 8,-32.8"/>
</g>
<g id="clust6" class="cluster">
<title>cluster_WebhooksModule_providers</title>
<polygon fill="none" stroke="black" points="16,-40.8 16,-92.8 641,-92.8 641,-40.8 16,-40.8"/>
</g>
<!-- ActionsService -->
<g id="node1" class="node">
<title>ActionsService</title>
<ellipse fill="#fdb462" stroke="black" cx="563" cy="-66.8" rx="70.06" ry="18"/>
<text text-anchor="middle" x="563" y="-62.6" font-family="Times,serif" font-size="14.00">ActionsService</text>
</g>
<!-- WebhooksModule -->
<g id="node5" class="node">
<title>WebhooksModule</title>
<polygon fill="#8dd3c7" stroke="black" points="399.92,-149.8 396.92,-153.8 375.92,-153.8 372.92,-149.8 280.08,-149.8 280.08,-113.8 399.92,-113.8 399.92,-149.8"/>
<text text-anchor="middle" x="340" y="-127.6" font-family="Times,serif" font-size="14.00">WebhooksModule</text>
</g>
<!-- ActionsService&#45;&gt;WebhooksModule -->
<g id="edge1" class="edge">
<title>ActionsService&#45;&gt;WebhooksModule</title>
<path fill="none" stroke="black" d="M563,-84.91C563,-104.14 563,-131.8 563,-131.8 563,-131.8 409.76,-131.8 409.76,-131.8"/>
<polygon fill="black" stroke="black" points="409.76,-128.3 399.76,-131.8 409.76,-135.3 409.76,-128.3"/>
</g>
<!-- AreasService -->
<g id="node2" class="node">
<title>AreasService</title>
<ellipse fill="#fdb462" stroke="black" cx="412" cy="-66.8" rx="62.51" ry="18"/>
<text text-anchor="middle" x="412" y="-62.6" font-family="Times,serif" font-size="14.00">AreasService</text>
</g>
<!-- AreasService&#45;&gt;WebhooksModule -->
<g id="edge2" class="edge">
<title>AreasService&#45;&gt;WebhooksModule</title>
<path fill="none" stroke="black" d="M374.6,-81.23C374.6,-81.23 374.6,-103.69 374.6,-103.69"/>
<polygon fill="black" stroke="black" points="371.1,-103.69 374.6,-113.69 378.1,-103.69 371.1,-103.69"/>
</g>
<!-- OauthService -->
<g id="node3" class="node">
<title>OauthService</title>
<ellipse fill="#fdb462" stroke="black" cx="268" cy="-66.8" rx="63.68" ry="18"/>
<text text-anchor="middle" x="268" y="-62.6" font-family="Times,serif" font-size="14.00">OauthService</text>
</g>
<!-- OauthService&#45;&gt;WebhooksModule -->
<g id="edge3" class="edge">
<title>OauthService&#45;&gt;WebhooksModule</title>
<path fill="none" stroke="black" d="M305.94,-81.55C305.94,-81.55 305.94,-103.39 305.94,-103.39"/>
<polygon fill="black" stroke="black" points="302.44,-103.39 305.94,-113.39 309.44,-103.39 302.44,-103.39"/>
</g>
<!-- WebhooksService -->
<g id="node4" class="node">
<title>WebhooksService</title>
<ellipse fill="#fdb462" stroke="black" cx="105" cy="-66.8" rx="81.08" ry="18"/>
<text text-anchor="middle" x="105" y="-62.6" font-family="Times,serif" font-size="14.00">WebhooksService</text>
</g>
<!-- WebhooksService&#45;&gt;WebhooksModule -->
<g id="edge4" class="edge">
<title>WebhooksService&#45;&gt;WebhooksModule</title>
<path fill="none" stroke="black" d="M105,-84.91C105,-104.14 105,-131.8 105,-131.8 105,-131.8 270.09,-131.8 270.09,-131.8"/>
<polygon fill="black" stroke="black" points="270.09,-135.3 280.09,-131.8 270.09,-128.3 270.09,-135.3"/>
</g>
</g>
</svg>
