<?xml version="1.0" encoding="UTF-8" standalone="no"?>
<!DOCTYPE svg PUBLIC "-//W3C//DTD SVG 1.1//EN"
 "http://www.w3.org/Graphics/SVG/1.1/DTD/svg11.dtd">
<!-- Generated by graphviz version 2.47.3 (20210619.1520)
 -->
<!-- Title: dependencies Pages: 1 -->
<svg width="606pt" height="174pt"
 viewBox="0.00 0.00 606.00 173.80" xmlns="http://www.w3.org/2000/svg" xmlns:xlink="http://www.w3.org/1999/xlink">
<g id="graph0" class="graph" transform="scale(1 1) rotate(0) translate(4 169.8)">
<title>dependencies</title>
<polygon fill="white" stroke="transparent" points="-4,4 -4,-169.8 602,-169.8 602,4 -4,4"/>
<text text-anchor="middle" x="299" y="-8.2" font-family="sans-serif" font-size="14.00">dependencies</text>
<g id="clust1" class="cluster">
<title>cluster_AreasModule</title>
<polygon fill="none" stroke="black" stroke-dasharray="1,5" points="8,-32.8 8,-157.8 590,-157.8 590,-32.8 8,-32.8"/>
</g>
<g id="clust6" class="cluster">
<title>cluster_AreasModule_providers</title>
<polygon fill="none" stroke="black" points="16,-40.8 16,-92.8 582,-92.8 582,-40.8 16,-40.8"/>
</g>
<!-- ActionsService -->
<g id="node1" class="node">
<title>ActionsService</title>
<ellipse fill="#fdb462" stroke="black" cx="504" cy="-66.8" rx="70.06" ry="18"/>
<text text-anchor="middle" x="504" y="-62.6" font-family="Times,serif" font-size="14.00">ActionsService</text>
</g>
<!-- AreasModule -->
<g id="node5" class="node">
<title>AreasModule</title>
<polygon fill="#8dd3c7" stroke="black" points="327.19,-149.8 324.19,-153.8 303.19,-153.8 300.19,-149.8 234.81,-149.8 234.81,-113.8 327.19,-113.8 327.19,-149.8"/>
<text text-anchor="middle" x="281" y="-127.6" font-family="Times,serif" font-size="14.00">AreasModule</text>
</g>
<!-- ActionsService&#45;&gt;AreasModule -->
<g id="edge1" class="edge">
<title>ActionsService&#45;&gt;AreasModule</title>
<path fill="none" stroke="black" d="M504,-84.91C504,-104.14 504,-131.8 504,-131.8 504,-131.8 337.21,-131.8 337.21,-131.8"/>
<polygon fill="black" stroke="black" points="337.21,-128.3 327.21,-131.8 337.21,-135.3 337.21,-128.3"/>
</g>
<!-- AreasService -->
<g id="node2" class="node">
<title>AreasService</title>
<ellipse fill="#fdb462" stroke="black" cx="353" cy="-66.8" rx="62.51" ry="18"/>
<text text-anchor="middle" x="353" y="-62.6" font-family="Times,serif" font-size="14.00">AreasService</text>
</g>
<!-- AreasService&#45;&gt;AreasModule -->
<g id="edge2" class="edge">
<title>AreasService&#45;&gt;AreasModule</title>
<path fill="none" stroke="black" d="M308.79,-79.64C308.79,-79.64 308.79,-103.32 308.79,-103.32"/>
<polygon fill="black" stroke="black" points="305.29,-103.32 308.79,-113.32 312.29,-103.32 305.29,-103.32"/>
</g>
<!-- OauthService -->
<g id="node3" class="node">
<title>OauthService</title>
<ellipse fill="#fdb462" stroke="black" cx="209" cy="-66.8" rx="63.68" ry="18"/>
<text text-anchor="middle" x="209" y="-62.6" font-family="Times,serif" font-size="14.00">OauthService</text>
</g>
<!-- OauthService&#45;&gt;AreasModule -->
<g id="edge3" class="edge">
<title>OauthService&#45;&gt;AreasModule</title>
<path fill="none" stroke="black" d="M253.75,-79.64C253.75,-79.64 253.75,-103.32 253.75,-103.32"/>
<polygon fill="black" stroke="black" points="250.25,-103.32 253.75,-113.32 257.25,-103.32 250.25,-103.32"/>
</g>
<!-- UserAreas -->
<g id="node4" class="node">
<title>UserAreas</title>
<ellipse fill="#fdb462" stroke="black" cx="76" cy="-66.8" rx="51.56" ry="18"/>
<text text-anchor="middle" x="76" y="-62.6" font-family="Times,serif" font-size="14.00">UserAreas</text>
</g>
<!-- UserAreas&#45;&gt;AreasModule -->
<g id="edge4" class="edge">
<title>UserAreas&#45;&gt;AreasModule</title>
<path fill="none" stroke="black" d="M76,-84.91C76,-104.14 76,-131.8 76,-131.8 76,-131.8 224.74,-131.8 224.74,-131.8"/>
<polygon fill="black" stroke="black" points="224.74,-135.3 234.74,-131.8 224.74,-128.3 224.74,-135.3"/>
</g>
</g>
</svg>
